<svg width="34" height="41" viewBox="0 0 34 41" fill="none" xmlns="http://www.w3.org/2000/svg">
<path d="M29.4913 17.3465V10.9972C29.5113 8.12433 28.1617 5.36194 25.7524 3.34752C23.4231 1.3756 20.374 0.296143 17.145 0.296143C17.095 0.296143 17.035 0.296143 16.985 0.296143C10.097 0.304642 4.49868 5.09845 4.49868 10.9972V17.3465C1.89944 17.61 0 19.4629 0 21.7068V35.9692C0 38.3916 2.27933 40.3891 5.12849 40.3891H28.8715C31.7207 40.3891 34 38.3916 34 35.9692V21.7068C33.99 19.4714 32.0906 17.61 29.4913 17.3465ZM6.48809 10.9972H6.49809C6.49809 6.03342 11.2067 1.97058 16.995 1.97058H17.005C19.7542 1.96208 22.3934 2.88854 24.3428 4.53747C26.3722 6.24591 27.5019 8.57481 27.4819 10.9972V17.355H25.2826V10.9972C25.3026 9.06779 24.4028 7.21487 22.7933 5.85492C21.2737 4.56297 19.2143 3.832 17.065 3.832H17.005C12.4064 3.832 8.68744 7.04488 8.68744 10.9887V17.355H6.48809V10.9972ZM23.2931 10.9972V17.355H10.6969V10.9972C10.6969 7.98834 13.516 5.54043 17.015 5.54043H17.075C18.6945 5.54043 20.254 6.09291 21.4037 7.07037C22.6233 8.10733 23.3131 9.52678 23.2931 10.9972ZM32.0906 35.9947C32.0906 37.4822 30.671 38.6891 28.9215 38.6891H5.16848C3.41899 38.6891 1.99941 37.4822 1.99941 35.9947V21.7493C1.99941 20.2619 3.41899 19.0549 5.16848 19.0549H28.9215C30.671 19.0549 32.0906 20.2619 32.0906 21.7493V35.9947Z" fill="#00416A"/>
<path d="M29.4913 17.3465V10.9972C29.5113 8.12433 28.1617 5.36194 25.7524 3.34752C23.4231 1.3756 20.374 0.296143 17.145 0.296143C17.095 0.296143 17.035 0.296143 16.985 0.296143C10.097 0.304642 4.49868 5.09845 4.49868 10.9972V17.3465C1.89944 17.61 0 19.4629 0 21.7068V35.9692C0 38.3916 2.27933 40.3891 5.12849 40.3891H28.8715C31.7207 40.3891 34 38.3916 34 35.9692V21.7068C33.99 19.4714 32.0906 17.61 29.4913 17.3465ZM6.48809 10.9972H6.49809C6.49809 6.03342 11.2067 1.97058 16.995 1.97058H17.005C19.7542 1.96208 22.3934 2.88854 24.3428 4.53747C26.3722 6.24591 27.5019 8.57481 27.4819 10.9972V17.355H25.2826V10.9972C25.3026 9.06779 24.4028 7.21487 22.7933 5.85492C21.2737 4.56297 19.2143 3.832 17.065 3.832H17.005C12.4064 3.832 8.68744 7.04488 8.68744 10.9887V17.355H6.48809V10.9972ZM23.2931 10.9972V17.355H10.6969V10.9972C10.6969 7.98834 13.516 5.54043 17.015 5.54043H17.075C18.6945 5.54043 20.254 6.09291 21.4037 7.07037C22.6233 8.10733 23.3131 9.52678 23.2931 10.9972ZM32.0906 35.9947C32.0906 37.4822 30.671 38.6891 28.9215 38.6891H5.16848C3.41899 38.6891 1.99941 37.4822 1.99941 35.9947V21.7493C1.99941 20.2619 3.41899 19.0549 5.16848 19.0549H28.9215C30.671 19.0549 32.0906 20.2619 32.0906 21.7493V35.9947Z" fill="#00416A"/>
<path d="M20.9376 28.4569C20.4977 27.1395 19.0881 26.2385 17.4786 26.2385C15.4892 26.2385 13.8696 27.607 13.8696 29.3069C13.8696 30.6753 14.9293 31.8738 16.4789 32.2478V34.6277C16.4789 35.0952 16.9287 35.4777 17.4786 35.4777C18.0284 35.4777 18.4783 35.0952 18.4783 34.6277V32.2478C20.3877 31.7803 21.4974 30.0804 20.9376 28.4569ZM17.4786 30.6668C16.5888 30.6668 15.869 30.0549 15.869 29.2984C15.869 28.5419 16.5888 27.93 17.4786 27.93C18.3683 27.93 19.0881 28.5419 19.0881 29.2984C19.0881 30.0549 18.3683 30.6668 17.4786 30.6668Z" fill="#00416A"/>
</svg>
