<svg width="33" height="41" viewBox="0 0 33 41" fill="none" xmlns="http://www.w3.org/2000/svg">
<path d="M16.2506 19.3652C18.8682 19.3652 21.1345 18.4136 22.9867 16.5361C24.8384 14.6588 25.7775 12.362 25.7775 9.7084C25.7775 7.05578 24.8387 4.75858 22.9864 2.88076C21.1342 1.00385 18.8679 0.0522461 16.2506 0.0522461C13.6327 0.0522461 11.3667 1.00385 9.51472 2.88107C7.66275 4.75828 6.72363 7.05547 6.72363 9.7084C6.72363 12.362 7.66275 14.6591 9.51472 16.5364C11.3673 18.4133 13.6336 19.3652 16.2506 19.3652ZM11.154 4.54232C12.575 3.10191 14.242 2.40174 16.2506 2.40174C18.2589 2.40174 19.9262 3.10191 21.3475 4.54232C22.7686 5.98304 23.4596 7.67305 23.4596 9.7084C23.4596 11.7444 22.7686 13.4341 21.3475 14.8748C19.9262 16.3155 18.2589 17.0157 16.2506 17.0157C14.2426 17.0157 12.5756 16.3152 11.154 14.8748C9.7326 13.4344 9.04155 11.7444 9.04155 9.7084C9.04155 7.67305 9.7326 5.98304 11.154 4.54232Z" fill="#00416A"/>
<path d="M32.92 30.8817C32.8666 30.1005 32.7586 29.2483 32.5995 28.3484C32.439 27.4417 32.2323 26.5847 31.9848 25.8013C31.7289 24.9916 31.3816 24.192 30.9516 23.4258C30.5059 22.6305 29.982 21.938 29.3941 21.3681C28.7794 20.7719 28.0268 20.2926 27.1565 19.943C26.2892 19.5952 25.328 19.419 24.2999 19.419C23.8961 19.419 23.5056 19.5869 22.7515 20.0846C22.2874 20.3914 21.7445 20.7462 21.1385 21.1387C20.6204 21.4733 19.9185 21.7869 19.0515 22.0707C18.2056 22.3482 17.3468 22.4889 16.4988 22.4889C15.6514 22.4889 14.7926 22.3482 13.9461 22.0707C13.08 21.7872 12.3778 21.4736 11.8606 21.139C11.2603 20.7502 10.7171 20.3954 10.2461 20.0843C9.49255 19.5866 9.10205 19.4187 8.69828 19.4187C7.66984 19.4187 6.709 19.5952 5.84201 19.9433C4.9723 20.2923 4.21938 20.7716 3.60407 21.3684C3.01621 21.9386 2.49234 22.6308 2.04692 23.4258C1.6175 24.192 1.26986 24.9913 1.01395 25.8016C0.766803 26.585 0.560089 27.4417 0.399546 28.3484C0.240211 29.2471 0.132478 30.0996 0.0790644 30.8826C0.026556 31.6483 0 32.4451 0 33.2502C0 35.343 0.656355 37.0373 1.95066 38.2869C3.22896 39.5199 4.92009 40.1451 6.97728 40.1451H26.0227C28.0793 40.1451 29.7704 39.5199 31.049 38.2869C32.3436 37.0383 33 35.3433 33 33.2499C32.9997 32.442 32.9728 31.6452 32.92 30.8817ZM29.4509 36.5846C28.6062 37.3995 27.4848 37.7956 26.0224 37.7956H6.97728C5.51459 37.7956 4.3932 37.3995 3.54884 36.5849C2.72048 35.7857 2.31791 34.6946 2.31791 33.2502C2.31791 32.4989 2.34236 31.7572 2.39124 31.0451C2.43892 30.3464 2.5364 29.579 2.68094 28.7635C2.82368 27.9581 3.00535 27.2022 3.22142 26.518C3.42874 25.8619 3.7115 25.2122 4.06216 24.5863C4.39682 23.9898 4.78188 23.4781 5.20678 23.0658C5.60421 22.68 6.10515 22.3644 6.69542 22.1276C7.24133 21.9086 7.85483 21.7887 8.52084 21.7706C8.60202 21.8144 8.74657 21.8979 8.98074 22.0527C9.45724 22.3674 10.0065 22.7265 10.6136 23.1196C11.2981 23.5619 12.1798 23.9614 13.2333 24.3061C14.3103 24.6591 15.4088 24.8384 16.4991 24.8384C17.5894 24.8384 18.6882 24.6591 19.7646 24.3064C20.819 23.9611 21.7004 23.5619 22.3858 23.119C23.0071 22.7164 23.541 22.3677 24.0174 22.0527C24.2516 21.8982 24.3962 21.8144 24.4774 21.7706C25.1437 21.7887 25.7572 21.9086 26.3034 22.1276C26.8933 22.3644 27.3943 22.6803 27.7917 23.0658C28.2166 23.4778 28.6017 23.9895 28.9363 24.5866C29.2873 25.2122 29.5704 25.8622 29.7774 26.5177C29.9937 27.2028 30.1757 27.9584 30.3182 28.7632C30.4624 29.5802 30.5602 30.348 30.6079 31.0454V31.046C30.657 31.7553 30.6818 32.4968 30.6821 33.2502C30.6818 34.6949 30.2792 35.7857 29.4509 36.5846Z" fill="#00416A"/>
</svg>
