<svg width="53" height="52" viewBox="0 0 53 52" fill="none" xmlns="http://www.w3.org/2000/svg">
<g filter="url(#filter0_d_958_59)">
<ellipse cx="20.5" cy="20" rx="12.5" ry="12" fill="#5D89BA"/>
<path d="M31 20C31 25.4467 26.3767 30 20.5 30C14.6233 30 10 25.4467 10 20C10 14.5533 14.6233 10 20.5 10C26.3767 10 31 14.5533 31 20Z" stroke="#36779E" stroke-width="4"/>
<path d="M31 20C31 25.4467 26.3767 30 20.5 30C14.6233 30 10 25.4467 10 20C10 14.5533 14.6233 10 20.5 10C26.3767 10 31 14.5533 31 20Z" stroke="#1E6590" stroke-opacity="0.74" stroke-width="4"/>
</g>
<defs>
<filter id="filter0_d_958_59" x="0" y="0" width="53" height="52" filterUnits="userSpaceOnUse" color-interpolation-filters="sRGB">
<feFlood flood-opacity="0" result="BackgroundImageFix"/>
<feColorMatrix in="SourceAlpha" type="matrix" values="0 0 0 0 0 0 0 0 0 0 0 0 0 0 0 0 0 0 127 0" result="hardAlpha"/>
<feOffset dx="6" dy="6"/>
<feGaussianBlur stdDeviation="7"/>
<feComposite in2="hardAlpha" operator="out"/>
<feColorMatrix type="matrix" values="0 0 0 0 0 0 0 0 0 0 0 0 0 0 0 0 0 0 0.25 0"/>
<feBlend mode="normal" in2="BackgroundImageFix" result="effect1_dropShadow_958_59"/>
<feBlend mode="normal" in="SourceGraphic" in2="effect1_dropShadow_958_59" result="shape"/>
</filter>
</defs>
</svg>
