<svg width="47" height="34" viewBox="0 0 47 34" fill="none" xmlns="http://www.w3.org/2000/svg">
<path d="M12.5607 0.621835C11.9749 0.0360485 11.0251 0.0360485 10.4393 0.621835L0.893398 10.1678C0.307611 10.7536 0.307611 11.7033 0.893398 12.2891C1.47919 12.8749 2.42893 12.8749 3.01472 12.2891L11.5 3.80382L19.9853 12.2891C20.5711 12.8749 21.5208 12.8749 22.1066 12.2891C22.6924 11.7033 22.6924 10.7536 22.1066 10.1678L12.5607 0.621835ZM10 1.6825L10 31.9768L13 31.9768L13 1.6825L10 1.6825Z" fill="white"/>
<path d="M34.4393 33.0375C35.0251 33.6233 35.9749 33.6233 36.5607 33.0375L46.1066 23.4915C46.6924 22.9058 46.6924 21.956 46.1066 21.3702C45.5208 20.7844 44.5711 20.7844 43.9853 21.3702L35.5 29.8555L27.0147 21.3702C26.4289 20.7844 25.4792 20.7844 24.8934 21.3702C24.3076 21.956 24.3076 22.9058 24.8934 23.4915L34.4393 33.0375ZM34 1.6825L34 31.9768L37 31.9768L37 1.6825L34 1.6825Z" fill="white"/>
</svg>
